<mxfile host="app.diagrams.net" agent="Mozilla/5.0 (Macintosh; Intel Mac OS X 10_15_7) AppleWebKit/537.36 (KHTML, like Gecko) Chrome/127.0.0.0 Safari/537.36 Edg/127.0.0.0" version="24.7.6">
  <diagram id="wFE0QG_FPsp0jaGvCLVb" name="Page-1">
    <mxGraphModel dx="1030" dy="625" grid="1" gridSize="10" guides="1" tooltips="1" connect="1" arrows="1" fold="1" page="1" pageScale="1" pageWidth="850" pageHeight="1100" math="0" shadow="0">
      <root>
        <mxCell id="0" />
        <mxCell id="1" parent="0" />
        <mxCell id="MJzvTrwR2zCVnB8Rzwza-5" style="edgeStyle=orthogonalEdgeStyle;rounded=0;orthogonalLoop=1;jettySize=auto;html=1;strokeColor=#788AA3;fontColor=#46495D;fillColor=#B2C9AB;" edge="1" parent="1" source="MJzvTrwR2zCVnB8Rzwza-1" target="MJzvTrwR2zCVnB8Rzwza-4">
          <mxGeometry relative="1" as="geometry" />
        </mxCell>
        <mxCell id="MJzvTrwR2zCVnB8Rzwza-1" value="撞库" style="rounded=0;whiteSpace=wrap;html=1;labelBackgroundColor=none;fillColor=#B2C9AB;strokeColor=#788AA3;fontColor=#46495D;" vertex="1" parent="1">
          <mxGeometry x="310" y="120" width="110" height="50" as="geometry" />
        </mxCell>
        <mxCell id="MJzvTrwR2zCVnB8Rzwza-7" value="" style="edgeStyle=orthogonalEdgeStyle;rounded=0;orthogonalLoop=1;jettySize=auto;html=1;strokeColor=#788AA3;fontColor=#46495D;fillColor=#B2C9AB;" edge="1" parent="1" source="MJzvTrwR2zCVnB8Rzwza-4" target="MJzvTrwR2zCVnB8Rzwza-6">
          <mxGeometry relative="1" as="geometry" />
        </mxCell>
        <mxCell id="MJzvTrwR2zCVnB8Rzwza-4" value="注册" style="rounded=0;whiteSpace=wrap;html=1;labelBackgroundColor=none;fillColor=#B2C9AB;strokeColor=#788AA3;fontColor=#46495D;" vertex="1" parent="1">
          <mxGeometry x="310" y="210" width="110" height="50" as="geometry" />
        </mxCell>
        <mxCell id="MJzvTrwR2zCVnB8Rzwza-9" value="" style="edgeStyle=orthogonalEdgeStyle;rounded=0;orthogonalLoop=1;jettySize=auto;html=1;strokeColor=#788AA3;fontColor=#46495D;fillColor=#B2C9AB;" edge="1" parent="1" source="MJzvTrwR2zCVnB8Rzwza-6" target="MJzvTrwR2zCVnB8Rzwza-8">
          <mxGeometry relative="1" as="geometry" />
        </mxCell>
        <mxCell id="MJzvTrwR2zCVnB8Rzwza-6" value="授信" style="rounded=0;whiteSpace=wrap;html=1;labelBackgroundColor=none;fillColor=#B2C9AB;strokeColor=#788AA3;fontColor=#46495D;" vertex="1" parent="1">
          <mxGeometry x="310" y="300" width="110" height="50" as="geometry" />
        </mxCell>
        <mxCell id="MJzvTrwR2zCVnB8Rzwza-11" value="" style="edgeStyle=orthogonalEdgeStyle;rounded=0;orthogonalLoop=1;jettySize=auto;html=1;strokeColor=#788AA3;fontColor=#46495D;fillColor=#B2C9AB;" edge="1" parent="1" source="MJzvTrwR2zCVnB8Rzwza-8" target="MJzvTrwR2zCVnB8Rzwza-10">
          <mxGeometry relative="1" as="geometry" />
        </mxCell>
        <mxCell id="MJzvTrwR2zCVnB8Rzwza-8" value="借款" style="rounded=0;whiteSpace=wrap;html=1;labelBackgroundColor=none;fillColor=#B2C9AB;strokeColor=#788AA3;fontColor=#46495D;" vertex="1" parent="1">
          <mxGeometry x="310" y="400" width="110" height="50" as="geometry" />
        </mxCell>
        <mxCell id="MJzvTrwR2zCVnB8Rzwza-10" value="还款" style="rounded=0;whiteSpace=wrap;html=1;labelBackgroundColor=none;fillColor=#B2C9AB;strokeColor=#788AA3;fontColor=#46495D;" vertex="1" parent="1">
          <mxGeometry x="310" y="500" width="110" height="50" as="geometry" />
        </mxCell>
        <mxCell id="MJzvTrwR2zCVnB8Rzwza-12" value="注册数据" style="rounded=0;whiteSpace=wrap;html=1;labelBackgroundColor=none;fillColor=#B2C9AB;strokeColor=#788AA3;fontColor=#46495D;" vertex="1" parent="1">
          <mxGeometry x="100" width="90" height="30" as="geometry" />
        </mxCell>
        <mxCell id="MJzvTrwR2zCVnB8Rzwza-13" value="授信数据" style="rounded=0;whiteSpace=wrap;html=1;labelBackgroundColor=none;fillColor=#B2C9AB;strokeColor=#788AA3;fontColor=#46495D;" vertex="1" parent="1">
          <mxGeometry x="100" y="50" width="90" height="30" as="geometry" />
        </mxCell>
        <mxCell id="MJzvTrwR2zCVnB8Rzwza-14" value="各渠道借款数据" style="rounded=0;whiteSpace=wrap;html=1;labelBackgroundColor=none;fillColor=#B2C9AB;strokeColor=#788AA3;fontColor=#46495D;" vertex="1" parent="1">
          <mxGeometry x="100" y="100" width="90" height="30" as="geometry" />
        </mxCell>
        <mxCell id="MJzvTrwR2zCVnB8Rzwza-15" value="客户结清情况" style="rounded=0;whiteSpace=wrap;html=1;labelBackgroundColor=none;fillColor=#B2C9AB;strokeColor=#788AA3;fontColor=#46495D;" vertex="1" parent="1">
          <mxGeometry x="100" y="150" width="90" height="30" as="geometry" />
        </mxCell>
        <mxCell id="MJzvTrwR2zCVnB8Rzwza-16" value="风控数据" style="rounded=0;whiteSpace=wrap;html=1;labelBackgroundColor=none;fillColor=#B2C9AB;strokeColor=#788AA3;fontColor=#46495D;" vertex="1" parent="1">
          <mxGeometry x="100" y="210" width="90" height="30" as="geometry" />
        </mxCell>
        <mxCell id="MJzvTrwR2zCVnB8Rzwza-17" value="特征决策数据" style="rounded=0;whiteSpace=wrap;html=1;labelBackgroundColor=none;fillColor=#B2C9AB;strokeColor=#788AA3;fontColor=#46495D;" vertex="1" parent="1">
          <mxGeometry x="100" y="270" width="90" height="30" as="geometry" />
        </mxCell>
        <mxCell id="MJzvTrwR2zCVnB8Rzwza-22" value="" style="shape=flexArrow;endArrow=classic;html=1;rounded=1;strokeColor=#788AA3;align=center;verticalAlign=middle;fontFamily=Helvetica;fontSize=11;fontColor=#46495D;labelBackgroundColor=default;edgeStyle=orthogonalEdgeStyle;curved=0;fillColor=#B2C9AB;" edge="1" parent="1">
          <mxGeometry width="50" height="50" relative="1" as="geometry">
            <mxPoint x="206" y="144.71" as="sourcePoint" />
            <mxPoint x="296" y="144.71" as="targetPoint" />
          </mxGeometry>
        </mxCell>
        <mxCell id="MJzvTrwR2zCVnB8Rzwza-23" value="参与撞库决策" style="edgeLabel;html=1;align=center;verticalAlign=middle;resizable=0;points=[];strokeColor=#788AA3;fontFamily=Helvetica;fontSize=11;fontColor=#46495D;labelBackgroundColor=default;fillColor=#B2C9AB;" vertex="1" connectable="0" parent="MJzvTrwR2zCVnB8Rzwza-22">
          <mxGeometry x="-0.3714" y="3" relative="1" as="geometry">
            <mxPoint x="5" y="-12" as="offset" />
          </mxGeometry>
        </mxCell>
      </root>
    </mxGraphModel>
  </diagram>
</mxfile>
